/* XPM */
static char * projman_xpm[] = {
"32 32 10 1",
" 	c None",
".	c #000000",
"+	c #808080",
"@	c #FFFFFF",
"#	c #C0C0C0",
"$	c #800080",
"%	c #FF00FF",
"&	c #008000",
"*	c #00FF00",
"=	c #808000",
"   ...  ++++++++                ",
"   +@...@@@@@@@@.        ....+  ",
"   +@#@@@#######@.      .###++. ",
"   +##++####+++++@.    .@#++++. ",
"   +++..++#++....+.   .@#+++++. ",
"   ...  ..#..     .  .@#++++++. ",
"         .#.        .@@#+++++.  ",
"         .#.       .#@#++++++.  ",
"  +++..  .#.       .@#++=++++.  ",
"  +@#+.  $$$      .#@#++++++.   ",
"  +@#+. $@@@.     .@#++.+++++   ",
"  +@#+. $@%$.    .#@#++++++.    ",
"  +@#.. $@%$.    .@#++.++++.    ",
"   ...  $@%$.    .@#++++++.     ",
"   +#.  $@%$.   .#@#+.++++.     ",
"   +@.  $@%$.   .@#++.+++.      ",
"   +@.  $@%$.   .@#++=+++=      ",
"   +@.  $@%$.   .@#+.+++.       ",
"   +#.  $@%$.   .@#+.+++.       ",
"   &&.  $@%$.   .@#+.++.        ",
"  &@**. $@%$. .+@@#+.+++..      ",
"  &@*&. $@%$.  .#@@..+++.       ",
"  &@*&. $@%$.   .@@..+++        ",
"  &@*&. $@%$.    .@..+.         ",
"  &@*&. $@%$.   ........        ",
"  &@*&.  ...   ..........       ",
"  &@*&.            ..           ",
"  &@*&.            ..           ",
"  &@*&.            ..           ",
"  &@*&.            ..           ",
"  &@*&.            ..           ",
"   ...              .           "};
