/* XPM */
static char * 2ic_dev_environment_48_xpm[] = {
"48 48 143 2",
"  	c None",
". 	c #122450",
"+ 	c #A67D28",
"@ 	c #715D36",
"# 	c #FFB310",
"$ 	c #C48F20",
"% 	c #3A3C45",
"& 	c #6B5A38",
"* 	c #D3981C",
"= 	c #B58624",
"- 	c #564D3E",
"; 	c #26304B",
"> 	c #F0AA14",
", 	c #896C30",
"' 	c #97742C",
") 	c #61543B",
"! 	c #675739",
"~ 	c #2A324A",
"{ 	c #657096",
"] 	c #B8BCDB",
"^ 	c #5F6680",
"/ 	c #E1A118",
"( 	c #848DB0",
"_ 	c #31416A",
": 	c #4D4840",
"< 	c #AEB3D2",
"[ 	c #3C4A73",
"} 	c #273B72",
"| 	c #3D5394",
"1 	c #445897",
"2 	c #5869A0",
"3 	c #7380AC",
"4 	c #6C7AA9",
"5 	c #394F8F",
"6 	c #203467",
"7 	c #6F7A9E",
"8 	c #324783",
"9 	c #5268AE",
"0 	c #8F9AC9",
"a 	c #B1B6D8",
"b 	c #6D7EBA",
"c 	c #5F73B4",
"d 	c #4B62AB",
"e 	c #8F96B8",
"f 	c #555C77",
"g 	c #2A3B67",
"h 	c #9DA6CF",
"i 	c #A4ABD2",
"j 	c #5B678D",
"k 	c #28314A",
"l 	c #6679B7",
"m 	c #AAB1D5",
"n 	c #787684",
"o 	c #5667A1",
"p 	c #A58B5E",
"q 	c #837B7B",
"r 	c #595C6B",
"s 	c #828FC3",
"t 	c #7484BD",
"u 	c #B09054",
"v 	c #9A8567",
"w 	c #BC954A",
"x 	c #C79A40",
"y 	c #6D718E",
"z 	c #D29F37",
"A 	c #96A0CC",
"B 	c #DDA42D",
"C 	c #E9A923",
"D 	c #8F8071",
"E 	c #303648",
"F 	c #7B89C0",
"G 	c #675945",
"H 	c #3C4575",
"I 	c #373C5E",
"J 	c #AC802C",
"K 	c #7A6334",
"L 	c #DDA025",
"M 	c #706B90",
"N 	c #666699",
"O 	c #625F84",
"P 	c #534C45",
"Q 	c #F4AE1A",
"R 	c #D5991D",
"S 	c #5E523D",
"T 	c #F5AE19",
"U 	c #83747F",
"V 	c #C69643",
"W 	c #3D3E44",
"X 	c #363A46",
"Y 	c #5C513C",
"Z 	c #635642",
"` 	c #BC914C",
" .	c #ECA921",
"..	c #E2A52A",
"+.	c #CF9B3B",
"@.	c #BB8928",
"#.	c #464A6C",
"$.	c #B38D55",
"%.	c #454342",
"&.	c #F2AB15",
"*.	c #374170",
"=.	c #C99325",
"-.	c #967E6E",
";.	c #626C98",
">.	c #444458",
",.	c #7F6739",
"'.	c #735D3E",
").	c #515687",
"!.	c #797088",
"~.	c #636396",
"{.	c #615541",
"].	c #444349",
"^.	c #616294",
"/.	c #D9A032",
"(.	c #343E6D",
"_.	c #353A4D",
":.	c #B18631",
"<.	c #323D6B",
"[.	c #3E3F44",
"}.	c #705E3D",
"|.	c #B98A2A",
"1.	c #596DB1",
"2.	c #475EA5",
"3.	c #6375B1",
"4.	c #364B89",
"5.	c #7A83A7",
"6.	c #8895C6",
"7.	c #243564",
"8.	c #A3A9CA",
"9.	c #192C5B",
"0.	c #354981",
"a.	c #4A5A8A",
"b.	c #435487",
"c.	c #2F437E",
"d.	c #2B3F78",
"e.	c #20315E",
"f.	c #99A0C1",
"g.	c #979EBF",
"h.	c #162753",
"i.	c #273761",
"j.	c #1A2C57",
"k.	c #212D4C",
"l.	c #46547B",
"                                                                                                ",
"                                                                        . .                     ",
"                                                                        . + @ .                 ",
"                                                                        . + # $ .               ",
"                                                                          % # # & .             ",
"                                                            . .           . * # = .             ",
"                                                            - ;           ; > # $ .             ",
"                                                            , + .       . + # # ' .             ",
"                                                            , # ) ) ) ) ) # # # )               ",
"                                                            ! # # # # # # # # > ~               ",
"  . . . . . . . . . . . . . . . . . . . . . . . . . . . . . . $ # # # # # # # $ .               ",
"  . { ] ] ] ] ] ] ] ] ] ] ] ] ] ] ] ] ] ] ] ] ] ] ] ] ] ] ] ] ^ + # # # # # # / .               ",
"  . { ] ] ] ] ( { { { { { { { { { { { { { { { { { { { { { { { { _ : , * # # # # ~               ",
"  . { ] ] < [ } | 1 2 3 4 2 2 2 1 | | | | | | | | | | | | | | | 5 6 7 7 + # # # @               ",
"  . { ] ] { 8 9 0 a 0 b c d d c 9 d d d d d d d d d d d d d d d d d 6 e f > # # = .             ",
"  . { ] ] g d h i 9 d d d d d d d d d d d d d d d d d d d d d d d d 5 j e ' # # # k             ",
"  . { ] ] 6 l m 9 d d d d d d d n d o p q d d d d d d d d d d d d d d [ ] r # # # , .           ",
"  . { ] ] 6 s t d d d d d d d u # v w # x y z n d d d d d d d d d d d [ ] ( = # # / .           ",
"  . { ] ] 6 A 9 d d d d n # v B # $ > # # C # D d d d d d d d d d d d [ ] ] : # # # @ .         ",
"  . { ] ] 6 t d d d d d z # # # $ E $ # # # # z q p o d d d d d d d d [ ] ] . * # # / .         ",
"  . { ] ] 6 F d d d d d u # # / & G H H I & , : * # D d d d d d d d d [ ] ] . @ # # # @ .       ",
"  . { ] ] 6 b d d d x u # # J K L M N N N O P K > Q d d d d d d d d d [ ] ] . . > # # / ~       ",
"  . { ] ] 6 d d d d # # # R S # T M N N N N U & / # x z n d d d d d d [ ] ] . . , # # # , .     ",
"  . { ] ] 6 d d d d w $ ' S > # # V N N N N N L K # # # D d d d d d d [ ] ] .   W # # # # X     ",
"  . { ] ] 6 d d d d n , Y Z ` `  .# ..* ` U +.# K # # q d d d d d d d [ ] ] .   . + # # # $ .   ",
"  . { ] ] 6 d d d x # # @.#.N N N $.' . $ # # # = + $ x n o d d d d d [ ] ] .     %.# # # # -   ",
"  . { ] ] 6 d d d z # # &.*.N N N M =., L -.`  .$ : E # # y d d d d d [ ] ] .     . $ # # # = . ",
"  . { ] ] 6 d d d ;.n # # >.N N N N +.V M N N M ,.* $ p n d d d d d d [ ] ] .       - # @ . = . ",
"  . { ] ] 6 d d d d d Q # '.).N N !.# $.N N N ~.{.# # p d d d d d d d [ ] ] .       . $ .   ) k ",
"  . { ] ] 6 9 d d d D # # &.].^.N /.# $.N N N (.* # # # v d d d d d d [ ] ] .         X + ) + . ",
"  . { ] ] 6 b d d d Q Q # > = _.:.# # +.N ^.<.+ # # u D ;.d d d d d d [ ] ] .         . % K ~ . ",
"  . { ] ] 6 l d d d d d z $ [.$ + K K , }.[.' # # # x d d d d d d d d [ ] ] .                   ",
"  . { ] ] 6 F d d d d d # C |.> # # # # # E ' # w w B d d d d d d d d [ ] ] .                   ",
"  . { ] ] 6 s 1.d d d d p o q # # # # # # # # u d d d d d d d d d d 2.[ ] ] .                   ",
"  . { ] ] _ 3.A d d d d d d p # n ;.# B n u # z d d d d d d d d d d 4.{ ] ] .                   ",
"  . { ] ] 5.} 6.i t 9 d d d o D d o x D d o p ;.d d d d d d d d d 2.7.8.] ] .                   ",
"  . { ] ] ] { 9.0.a.a.b.c.c.c.c.c.c.c.c.c.c.c.c.c.c.c.c.c.c.c.c.d.e.f.] ] ] .                   ",
"  . { ] ] ] ] < e e e e e e e e e e e e e e e e e e e e e e e e e ] ] ] ] ] .                   ",
"  . { ] ] ] ] ] ] ] ] ] ] ] ] ] ] ] ] ] ] ] ] ] ] ] ] ] ] ] ] ] ] ] ] ] ] ] .                   ",
"  . { ] ] ] ] ] ] ] ] ] ] ] ] ] ] ] ] ] ] ] ] ] ] ] ] ] 8.g.g.g.g.g.g.g.g.g..                   ",
"  . . . . . . . . . h.f.] ] ] ] ] ] ] ] ] ] ] ] ] ] ] ] i.j.j.j.j.j.j.j.j.j..                   ",
"                    . e ] ] ] j [ f.5.[ ( j [ f.] ] ] ] .                                       ",
"                    . e ] ] f.[.+ { k./ i.[.+ { ] ] ] ] .                                       ",
"  . . . . . . . . . . e ] ] ] l.i.f.{ i.5.l.i.f.] ] ] ] . . . . . . . . . . .                   ",
"  . [ { { { { { { { { 8.] ] ] ] ] ] ] ] ] ] ] ] ] ] ] ] { { { { { { { { { { .                   ",
"  . { ] ] ] ] ] ] ] ] ] ] ] ] ] ] ] ] ] ] ] ] ] ] ] ] ] ] ] ] ] ] ] ] ] ] ] .                   ",
"  . [ { { { { { { { { { { { { { { { { { { { { { { { { { { { { { { { { { { { .                   ",
"  . . . . . . . . . . . . . . . . . . . . . . . . . . . . . . . . . . . . . .                   "};
