/* XPM */
static char * 2ic_dev_environment_16_xpm[] = {
"16 16 72 1",
" 	c None",
".	c #122450",
"+	c #303648",
"@	c #F8AF12",
"#	c #3F4044",
"$	c #9D782A",
"%	c #212D4C",
"&	c #FFB310",
"*	c #7A6334",
"=	c #3F3F44",
"-	c #AEB3D2",
";	c #46547B",
">	c #657096",
",	c #505D84",
"'	c #3C4A73",
")	c #78633D",
"!	c #EBA715",
"~	c #745F36",
"{	c #6F7A9E",
"]	c #69749B",
"^	c #6D7EBA",
"/	c #4B62AB",
"(	c #475EA5",
"_	c #253152",
":	c #CD951E",
"<	c #5F6FA3",
"[	c #626C98",
"}	c #C79A41",
"|	c #E8A923",
"1	c #9A8667",
"2	c #5667A1",
"3	c #203467",
"4	c #DFA733",
"5	c #4A5E9A",
"6	c #A6855A",
"7	c #8F7868",
"8	c #8F8071",
"9	c #827D7D",
"0	c #DA9D1A",
"a	c #3D5394",
"b	c #F4AE1A",
"c	c #D9A032",
"d	c #BC914C",
"e	c #D29F37",
"f	c #DE9F19",
"g	c #242F4B",
"h	c #445897",
"i	c #DDA42D",
"j	c #736982",
"k	c #8C7977",
"l	c #E2A52A",
"m	c #5C513C",
"n	c #F6AD13",
"o	c #3E3F44",
"p	c #F5AE19",
"q	c #C69643",
"r	c #E9A61E",
"s	c #BB954A",
"t	c #3D3E44",
"u	c #7A83A7",
"v	c #7781AA",
"w	c #6679B7",
"x	c #737690",
"y	c #A58B5D",
"z	c #445AA0",
"A	c #2A3B67",
"B	c #B8BCDB",
"C	c #848DB0",
"D	c #99A0C1",
"E	c #5B678D",
"F	c #273761",
"G	c #898CA3",
"           ...  ",
"         ..+@#  ",
"         .$%&*  ",
"..........&&&=  ",
".-;>>,'''')!&~  ",
".{]^//////(_&:. ",
".></[}&|12/34&+ ",
".>5/}&67&8/39&0.",
".>a/bccd&e/3>f&g",
".>h/ijdkli/3>mno",
".></ep&qrs/3>.t.",
".uvwx}i|y/zA>.  ",
".B>>;''''';C>.  ",
".>>>BDDDBE''F.  ",
".'''BCuGBE''F.  ",
".>>>>>>>>>>>'.  "};
