/* XPM */
static char * projman_xpm[] = {
"48 48 97 2",
"  	c None",
". 	c #122450",
"+ 	c #A67D28",
"@ 	c #715D36",
"# 	c #FFB310",
"$ 	c #C48F20",
"% 	c #3A3C45",
"& 	c #6B5A38",
"* 	c #D3981C",
"= 	c #B58624",
"- 	c #564D3E",
"; 	c #26304B",
"> 	c #F0AA14",
", 	c #896C30",
"' 	c #97742C",
") 	c #61543B",
"! 	c #675739",
"~ 	c #2A324A",
"{ 	c #657096",
"] 	c #B8BCDB",
"^ 	c #5F6680",
"/ 	c #E1A118",
"( 	c #848DB0",
"_ 	c #31416A",
": 	c #4D4840",
"< 	c #AEB3D2",
"[ 	c #3C4A73",
"} 	c #273B72",
"| 	c #3D5394",
"1 	c #445897",
"2 	c #5869A0",
"3 	c #7380AC",
"4 	c #6C7AA9",
"5 	c #394F8F",
"6 	c #203467",
"7 	c #6F7A9E",
"8 	c #324783",
"9 	c #5268AE",
"0 	c #8F9AC9",
"a 	c #B1B6D8",
"b 	c #6D7EBA",
"c 	c #5F73B4",
"d 	c #4B62AB",
"e 	c #8F96B8",
"f 	c #555C77",
"g 	c #2A3B67",
"h 	c #9DA6CF",
"i 	c #A4ABD2",
"j 	c #5B678D",
"k 	c #28314A",
"l 	c #6679B7",
"m 	c #AAB1D5",
"n 	c #FF0000",
"o 	c #CE0000",
"p 	c #595C6B",
"q 	c #828FC3",
"r 	c #7484BD",
"s 	c #BC0000",
"t 	c #EC0000",
"u 	c #A50000",
"v 	c #7D0000",
"w 	c #5E0000",
"x 	c #FE0000",
"y 	c #790000",
"z 	c #96A0CC",
"A 	c #FA0000",
"B 	c #7B89C0",
"C 	c #FD0000",
"D 	c #930000",
"E 	c #3D3E44",
"F 	c #363A46",
"G 	c #454342",
"H 	c #7A6334",
"I 	c #596DB1",
"J 	c #475EA5",
"K 	c #6375B1",
"L 	c #9E0000",
"M 	c #364B89",
"N 	c #7A83A7",
"O 	c #8895C6",
"P 	c #243564",
"Q 	c #A3A9CA",
"R 	c #192C5B",
"S 	c #354981",
"T 	c #4A5A8A",
"U 	c #435487",
"V 	c #2F437E",
"W 	c #2B3F78",
"X 	c #20315E",
"Y 	c #99A0C1",
"Z 	c #979EBF",
"` 	c #162753",
" .	c #273761",
"..	c #1A2C57",
"+.	c #3E3F44",
"@.	c #212D4C",
"#.	c #46547B",
"                                                                                                ",
"                                                                        . .                     ",
"                                                                        . + @ .                 ",
"                                                                        . + # $ .               ",
"                                                                          % # # & .             ",
"                                                            . .           . * # = .             ",
"                                                            - ;           ; > # $ .             ",
"                                                            , + .       . + # # ' .             ",
"                                                            , # ) ) ) ) ) # # # )               ",
"                                                            ! # # # # # # # # > ~               ",
"  . . . . . . . . . . . . . . . . . . . . . . . . . . . . . . $ # # # # # # # $ .               ",
"  . { ] ] ] ] ] ] ] ] ] ] ] ] ] ] ] ] ] ] ] ] ] ] ] ] ] ] ] ] ^ + # # # # # # / .               ",
"  . { ] ] ] ] ( { { { { { { { { { { { { { { { { { { { { { { { { _ : , * # # # # ~               ",
"  . { ] ] < [ } | 1 2 3 4 2 2 2 1 | | | | | | | | | | | | | | | 5 6 7 7 + # # # @               ",
"  . { ] ] { 8 9 0 a 0 b c d d c 9 d d d d d d d d d d d d d d d d d 6 e f > # # = .             ",
"  . { ] ] g d h i 9 d d d d d d d d d d d d d d d d d d d d d d d d 5 j e ' # # # k             ",
"  . { ] ] 6 l m 9 d n n n n n o d d d n n n o d d d n o d d d d d d d [ ] p # # # , .           ",
"  . { ] ] 6 q r d d o s t u v w d d n x v y w d d d n y d d d d d d d [ ] ( = # # / .           ",
"  . { ] ] 6 z 9 d d d d A v d d d d n v d d d d d d n y d d d d d d d [ ] ] : # # # @ .         ",
"  . { ] ] 6 r d d d d d n y d d d d n y d d d d d d n y d d d d d d d [ ] ] . * # # / .         ",
"  . { ] ] 6 B d d d d d n y d d d d n s d d d d d d n s d d d d d d d [ ] ] . @ # # # @ .       ",
"  . { ] ] 6 b d d d d d n y d d d d C x A n o d d d n t A n n o d d d [ ] ] . . > # # / ~       ",
"  . { ] ] 6 d d d d d d o w d d d d d D y y w d d d o y y y y w d d d [ ] ] . . , # # # , .     ",
"  . { ] ] 6 d d d d d d d d d d d d d d d d d d d d d d d d d d d d d [ ] ] .   E # # # # F     ",
"  . { ] ] 6 d d d d d d d d d d d d d d d d d d d d d d d d d d d d d [ ] ] .   . + # # # $ .   ",
"  . { ] ] 6 d d n x x x x x x x x x x x x x x x x x x x x x x x o d d [ ] ] .     G # # # # -   ",
"  . { ] ] 6 d d d d d d d d d d d d d d d d d d d d d d d d d d d d d [ ] ] .     . $ # # # = . ",
"  . { ] ] 6 d d d d d d d d d d d d d d d d d d d d d d d d d d d d d [ ] ] .       - # @ . = . ",
"  . { ] ] 6 d d d d d d d d n n n n n o d d n o d d n s d d d d d d d [ ] ] .       . $ .   ) k ",
"  . { ] ] 6 9 d d d d d d d o s t u v w d d n s d n u d d d d d d d d [ ] ] .         F + ) + . ",
"  . { ] ] 6 b d d d d d d d d d A v d d d d n t o u d d d d d d d d d [ ] ] .         . % H ~ . ",
"  . { ] ] 6 l d d d d d d d d d n y d d d d n x o d d d d d d d d d d [ ] ] .                   ",
"  . { ] ] 6 B d d d d d d d d d n y d d d d n u o t d d d d d d d d d [ ] ] .                   ",
"  . { ] ] 6 q I d d d d d d d d n y d d d d n v d t t d d d d d d d J [ ] ] .                   ",
"  . { ] ] _ K z d d d d d d d d o w d d d d o w d d L v d d d d d d M { ] ] .                   ",
"  . { ] ] N } O i r 9 d d d d d d d d d d d d d d d d d d d d d d J P Q ] ] .                   ",
"  . { ] ] ] { R S T T U V V V V V V V V V V V V V V V V V V V V W X Y ] ] ] .                   ",
"  . { ] ] ] ] < e e e e e e e e e e e e e e e e e e e e e e e e e ] ] ] ] ] .                   ",
"  . { ] ] ] ] ] ] ] ] ] ] ] ] ] ] ] ] ] ] ] ] ] ] ] ] ] ] ] ] ] ] ] ] ] ] ] .                   ",
"  . { ] ] ] ] ] ] ] ] ] ] ] ] ] ] ] ] ] ] ] ] ] ] ] ] ] Q Z Z Z Z Z Z Z Z Z .                   ",
"  . . . . . . . . . ` Y ] ] ] ] ] ] ] ] ] ] ] ] ] ] ] ]  ....................                   ",
"                    . e ] ] ] j [ Y N [ ( j [ Y ] ] ] ] .                                       ",
"                    . e ] ] Y +.+ { @./  .+.+ { ] ] ] ] .                                       ",
"  . . . . . . . . . . e ] ] ] #. .Y {  .N #. .Y ] ] ] ] . . . . . . . . . . .                   ",
"  . [ { { { { { { { { Q ] ] ] ] ] ] ] ] ] ] ] ] ] ] ] ] { { { { { { { { { { .                   ",
"  . { ] ] ] ] ] ] ] ] ] ] ] ] ] ] ] ] ] ] ] ] ] ] ] ] ] ] ] ] ] ] ] ] ] ] ] .                   ",
"  . [ { { { { { { { { { { { { { { { { { { { { { { { { { { { { { { { { { { { .                   ",
"  . . . . . . . . . . . . . . . . . . . . . . . . . . . . . . . . . . . . . .                   "};
